# xmcd
#
# Track frame offsets:
#	150
#	11991
#	20811
#	31634
#	45546
#	56887
#	67755
#	83236
#
# Disc length: 1252 seconds
# Revision: 5
# Processed by: cddbd v1.5.2PL0 Copyright (c) Steve Scherf et al.
# Submitted via: dBpowerAMP V12.0
#
DISCID=6004e208
DTITLE=Various Artist - California and New York
DYEAR=1900
DGENRE=
TTITLE0=SlickShoes,AntelopeValley,CA - Crooked
TTITLE1=SlickShoes,AntelopeValley,CA - Hope Agianst Hope
TTITLE2=SlickShoes,AntelopeValley,CA - Ten Ways To Stay Out Of Debt
TTITLE3=SlickShoes,AntelopeValley,CA - Work It
TTITLE4=Cooter,AKAAutopilotOff,OrangeCounty,NY - Clockwork
TTITLE5=Cooter,AKAAutopilotOff,OrangeCounty,NY - The Silver Star
TTITLE6=Cooter,AKAAutopilotOff,OrangeCounty,NY - Pin The Tail On The Donkey
TTITLE7=Cooter,AKAAutopilotOff,OrangeCounty,NY - Spring Training
EXTD=
EXTT0=
EXTT1=
EXTT2=
EXTT3=
EXTT4=
EXTT5=
EXTT6=
EXTT7=
PLAYORDER=
